# xmcd
#
# Track frame offsets: 
#        150
#        14182
#        27227
#        40098
#        54600
#        68450
#        81205
#        95227
#        108986
#        121994
#        133050
#        145743
#        160863
#        173768
#        186951
#        201189
#        216555
#        238056
#        251234
#        265089
#        279166
#        295130
#        318439
#
# Disc length: 4421 seconds
#
# Revision: 0
# Processed by: cddbd v1.5.2PL0 Copyright (c) Steve Scherf et al.
# Submitted via: ExactAudioCopy v1.0b3
#
DISCID=5c114317
DTITLE=Big Bill Broonzy - Big Bill Broonzy - Vol. 13 (1949 - 1951)
DYEAR=2013
DGENRE=Blues
TTITLE0=Bull Cow Blues No 3 (alt. take)
TTITLE1=Married Life Is A Pain (alt. take)
TTITLE2=Black Mare Blues (alt. take)
TTITLE3=WPA Blues (alt. take)
TTITLE4=Oh Babe (Don’t Do Me That Way) (alt. take)
TTITLE5=Little Bug (alt. take)
TTITLE6=Bill Broonzy and His Fat Four - (I’m A) Wanderin’ Man
TTITLE7=Bill Broonzy and His Fat Four - I Love My Whiskey
TTITLE8=Bill Broonzy and His Fat Four - You've Been Mistreating Me
TTITLE9=Bill Broonzy and His Fat Four - I Stay Blue All The Time
TTITLE10=Bill Broonzy and His Fat Four - Water Coast Blues
TTITLE11=Five Feet Seven
TTITLE12=I Wonder
TTITLE13=Keep your Hands Off Her
TTITLE14=Mindin' My Own Business
TTITLE15=John Henry
TTITLE16=In The Evening When The Sun Goes Down
TTITLE17=Bill Broonzy and Graeme Bell's Australian Jazz Band - I Feel 
TTITLE17=So Good
TTITLE18=Bill Broonzy and Graeme Bell's Australian Jazz Band - Who's S
TTITLE18=orry Now
TTITLE19=Trouble In Mind
TTITLE20=Keep Your Hands Off Her
TTITLE21=Bill Broonzy and Graeme Bell's Australian Jazz Band - Mama Do
TTITLE21=n't Allow
TTITLE22=Bill Broonzy and Graeme Bell's Australian Jazz Band - When Th
TTITLE22=e Saints Go Marching In
EXTD=
EXTT0=
EXTT1=
EXTT2=
EXTT3=
EXTT4=
EXTT5=
EXTT6=
EXTT7=
EXTT8=
EXTT9=
EXTT10=
EXTT11=
EXTT12=
EXTT13=
EXTT14=
EXTT15=
EXTT16=
EXTT17=
EXTT18=
EXTT19=
EXTT20=
EXTT21=
EXTT22=
PLAYORDER=
